<svg xmlns="http://www.w3.org/2000/svg" xmlns:xlink="http://www.w3.org/1999/xlink" viewBox="0 0 251.075 218.539" width="251.075" height="218.539">
  <defs>
    <linearGradient id="gradient-1" x1="0%" y1="0%" x2="100%" y2="100%">
      <stop offset="0.04" stop-color="#0ff"></stop>
      <stop offset="1" stop-color="#080080"></stop>
    </linearGradient>
    <linearGradient id="gradient-2" x1="0%" y1="0%" x2="100%" y2="100%">
      <stop offset="0" stop-color="#0ff"></stop>
      <stop offset="0.95" stop-color="#040080"></stop>
    </linearGradient>
  </defs>
  <path d="M 5.06 34.226 L 5.464 34.226 L 5.464 34.817 L 5.06 34.817 L 5.06 34.226 Z M 5.569 33.959 L 5.975 33.959 L 5.975 34.817 L 5.569 34.817 L 5.569 33.959 Z M 10.488 38.169 L 10.891 38.169 L 10.891 38.759 L 10.488 38.759 L 10.488 38.169 Z M 10.996 37.901 L 11.401 37.901 L 11.401 38.759 L 10.996 38.759 L 10.996 37.901 Z M 11.498 37.591 L 11.902 37.591 L 11.902 38.759 L 11.498 38.759 L 11.498 37.591 Z M 9.977 38.34 L 10.381 38.34 L 10.381 38.759 L 9.977 38.759 L 9.977 38.34 Z" fill="#ccf2ff" style=""></path>
  <path d="M 129.519 4.551 C 99.359 7.378 74.242 18.051 53.872 36.844 C 35.578 53.72 23.515 76.07 20.153 99.515 C 18.669 109.823 19.559 129.071 21.933 138.102 L 23.713 144.945 L 86.998 145.217 C 147.219 145.4 150.284 145.491 152.164 147.134 C 160.964 154.522 174.215 152.79 179.257 143.576 C 181.927 138.65 182.027 135.183 179.555 130.257 C 176.687 124.418 172.435 122.138 164.524 122.138 C 158.492 122.138 157.504 122.412 153.944 125.058 L 149.889 128.068 L 126.849 128.068 C 114.192 128.068 101.041 127.702 97.678 127.247 C 73.847 124.054 59.113 103.711 65.243 82.182 C 68.507 70.414 76.912 62.204 90.36 57.552 C 95.799 55.636 97.481 55.636 166.897 55.271 L 237.798 54.268 C 237.798 53.902 235.622 50.893 232.952 47.699 C 215.549 26.444 188.948 11.21 161.162 6.466 C 152.658 5.006 135.947 4.003 129.519 4.551 Z" fill="url(#gradient-1)" fill-opacity=".9" style=""></path>
  <path d="M 106.775 77.713 C 94.514 81.36 92.635 97.964 103.709 104.35 C 109.643 107.725 118.838 106.448 123.486 101.704 C 125.366 99.879 126.156 99.788 151.669 99.788 C 174.017 99.788 178.961 100.062 184.498 101.43 C 198.54 104.988 208.725 114.841 212.681 128.342 C 214.461 134.635 214.461 139.106 212.385 145.765 C 209.121 156.712 201.112 165.287 189.443 170.395 L 182.917 173.223 L 110.928 173.68 L 39.04 174.135 L 45.268 181.434 C 56.74 194.752 72.066 206.156 87.394 212.724 C 96.887 216.738 110.335 220.751 118.345 222.028 C 130.607 223.854 160.964 222.759 167.095 220.294 C 168.183 219.839 171.743 218.836 174.907 217.923 C 190.135 213.818 206.847 204.605 220.393 192.745 C 237.105 178.15 248.675 158.992 254.213 136.733 C 257.377 123.962 256.487 94.954 252.631 85.558 L 251.641 83.368 L 188.553 83.368 L 125.366 83.368 L 123.486 81.452 C 119.928 77.713 112.511 76.07 106.775 77.713 Z" fill="url(#gradient-2)" style=""></path>
  <path d="M 107.477 91.667 L 111.408 91.667 L 111.408 98.513 L 107.477 98.513 L 107.477 91.667 Z M 112.43 88.578 L 116.363 88.578 L 116.363 98.513 L 112.43 98.513 L 112.43 88.578 Z M 160.255 137.354 L 164.187 137.354 L 164.187 144.199 L 160.255 144.199 L 160.255 137.354 Z M 165.209 134.264 L 169.141 134.264 L 169.141 144.199 L 165.209 144.199 L 165.209 134.264 Z M 170.085 130.662 L 174.017 130.662 L 174.017 144.199 L 170.085 144.199 L 170.085 130.662 Z M 155.288 139.331 L 159.22 139.331 L 159.22 144.199 L 155.288 144.199 L 155.288 139.331 Z" fill="#ccf2ff" style=""></path>
  <path d="M 117.306 84.976 L 121.238 84.976 L 121.238 98.513 L 117.306 98.513 L 117.306 84.976 Z M 102.511 93.646 L 106.442 93.646 L 106.442 98.513 L 102.511 98.513 L 102.511 93.646 Z" fill="#ccf2ff" style=""></path>
</svg>