<svg xmlns="http://www.w3.org/2000/svg" xmlns:xlink="http://www.w3.org/1999/xlink" viewBox="0 0 251.075 218.539" width="251.075" height="218.539">
  <defs>
    <linearGradient id="gradient-1" x1="0%" y1="0%" x2="100%" y2="100%">
      <stop offset="0.04" stop-color="#0ff"></stop>
      <stop offset="1" stop-color="#080080"></stop>
    </linearGradient>
    <linearGradient id="gradient-2" x1="0%" y1="0%" x2="100%" y2="100%">
      <stop offset="0" stop-color="#0ff"></stop>
      <stop offset="0.95" stop-color="#040080"></stop>
    </linearGradient>
  </defs>
  <path d="M -13.594 31.572 L -13.19 31.572 L -13.19 32.163 L -13.594 32.163 L -13.594 31.572 Z M -13.085 31.305 L -12.679 31.305 L -12.679 32.163 L -13.085 32.163 L -13.085 31.305 Z M -8.166 35.515 L -7.763 35.515 L -7.763 36.105 L -8.166 36.105 L -8.166 35.515 Z M -7.658 35.247 L -7.253 35.247 L -7.253 36.105 L -7.658 36.105 L -7.658 35.247 Z M -7.156 34.937 L -6.752 34.937 L -6.752 36.105 L -7.156 36.105 L -7.156 34.937 Z M -8.677 35.686 L -8.273 35.686 L -8.273 36.105 L -8.677 36.105 L -8.677 35.686 Z" fill="#ccf2ff" style=""></path>
  <path d="M 110.865 1.897 C 80.705 4.724 55.588 15.397 35.218 34.19 C 16.924 51.066 4.861 73.416 1.499 96.861 C 0.015 107.169 0.905 126.417 3.279 135.448 L 5.059 142.291 L 68.344 142.563 C 128.565 142.746 131.63 142.837 133.51 144.48 C 142.31 151.868 155.561 150.136 160.603 140.922 C 163.273 135.996 163.373 132.529 160.901 127.603 C 158.033 121.764 153.781 119.484 145.87 119.484 C 139.838 119.484 138.85 119.758 135.29 122.404 L 131.235 125.414 L 108.195 125.414 C 95.538 125.414 82.387 125.048 79.024 124.593 C 55.193 121.4 40.459 101.057 46.589 79.528 C 49.853 67.76 58.258 59.55 71.706 54.898 C 77.145 52.982 78.827 52.982 148.243 52.617 L 219.144 51.614 C 219.144 51.248 216.968 48.239 214.298 45.045 C 196.895 23.79 170.294 8.556 142.508 3.812 C 134.004 2.352 117.293 1.349 110.865 1.897 Z" fill="url(#gradient-1)" fill-opacity=".9" style=""></path>
  <path d="M 88.121 75.059 C 75.86 78.706 73.981 95.31 85.055 101.696 C 90.989 105.071 100.184 103.794 104.832 99.05 C 106.712 97.225 107.502 97.134 133.015 97.134 C 155.363 97.134 160.307 97.408 165.844 98.776 C 179.886 102.334 190.071 112.187 194.027 125.688 C 195.807 131.981 195.807 136.452 193.731 143.111 C 190.467 154.058 182.458 162.633 170.789 167.741 L 164.263 170.569 L 92.274 171.026 L 20.386 171.481 L 26.614 178.78 C 38.086 192.098 53.412 203.502 68.74 210.07 C 78.233 214.084 91.681 218.097 99.691 219.374 C 111.953 221.2 142.31 220.105 148.441 217.64 C 149.529 217.185 153.089 216.182 156.253 215.269 C 171.481 211.164 188.193 201.951 201.739 190.091 C 218.451 175.496 230.021 156.338 235.559 134.079 C 238.723 121.308 237.833 92.3 233.977 82.904 L 232.987 80.714 L 169.899 80.714 L 106.712 80.714 L 104.832 78.798 C 101.274 75.059 93.857 73.416 88.121 75.059 Z" fill="url(#gradient-2)" style=""></path>
  <path d="M 88.823 89.013 L 92.754 89.013 L 92.754 95.859 L 88.823 95.859 L 88.823 89.013 Z M 93.776 85.924 L 97.709 85.924 L 97.709 95.859 L 93.776 95.859 L 93.776 85.924 Z M 141.601 134.7 L 145.533 134.7 L 145.533 141.545 L 141.601 141.545 L 141.601 134.7 Z M 146.555 131.61 L 150.487 131.61 L 150.487 141.545 L 146.555 141.545 L 146.555 131.61 Z M 151.431 128.008 L 155.363 128.008 L 155.363 141.545 L 151.431 141.545 L 151.431 128.008 Z M 136.634 136.677 L 140.566 136.677 L 140.566 141.545 L 136.634 141.545 L 136.634 136.677 Z" fill="#ccf2ff" style=""></path>
  <path d="M 98.652 82.322 L 102.584 82.322 L 102.584 95.859 L 98.652 95.859 L 98.652 82.322 Z M 83.857 90.992 L 87.788 90.992 L 87.788 95.859 L 83.857 95.859 L 83.857 90.992 Z" fill="#ccf2ff" style=""></path>
</svg>